<svg width="28" height="30" viewBox="0 0 28 30" fill="none" xmlns="http://www.w3.org/2000/svg">
<path opacity="0.1" d="M13.5726 0.435547C6.07668 0.435547 0 6.86117 0 14.7876C0 22.714 6.07668 29.1396 13.5726 29.1396C21.0686 29.1396 27.1453 22.714 27.1453 14.7876C27.1366 6.865 21.065 0.444774 13.5726 0.435547Z" fill="white"/>
<path d="M21.4075 10.2426L13.6654 21.3522C13.4808 21.6113 13.2054 21.781 12.9013 21.8233C12.5971 21.8656 12.2897 21.7769 12.048 21.5771L6.5194 16.9031C6.03153 16.4903 5.95254 15.7374 6.34295 15.2215C6.73337 14.7057 7.44535 14.6221 7.93322 15.035L12.5434 18.9351L19.5865 8.8277C19.8174 8.46123 20.2201 8.25862 20.6347 8.30031C21.0493 8.34199 21.4087 8.62123 21.5702 9.02716C21.7317 9.43309 21.6692 9.90002 21.4075 10.2426Z" fill="white"/>
</svg>
