<svg width="28" height="30" viewBox="0 0 28 30" fill="none" xmlns="http://www.w3.org/2000/svg">
<path d="M13.5727 0.435547C6.07674 0.435547 6.10352e-05 6.86117 6.10352e-05 14.7876C6.10352e-05 22.714 6.07674 29.1396 13.5727 29.1396C21.0687 29.1396 27.1454 22.714 27.1454 14.7876C27.1366 6.865 21.0651 0.444774 13.5727 0.435547Z" fill="#5243C2" fill-opacity="0.103693"/>
<path d="M21.4075 10.2426L13.6654 21.3522C13.4808 21.6113 13.2055 21.781 12.9013 21.8233C12.5972 21.8656 12.2897 21.7769 12.048 21.5771L6.51943 16.9031C6.03157 16.4903 5.95257 15.7374 6.34298 15.2215C6.7334 14.7057 7.44538 14.6221 7.93325 15.035L12.5434 18.9351L19.5865 8.8277C19.8174 8.46123 20.2202 8.25862 20.6348 8.30031C21.0494 8.34199 21.4088 8.62123 21.5703 9.02716C21.7318 9.43309 21.6692 9.90002 21.4075 10.2426Z" fill="#5243C2"/>
</svg>
