<svg width="27" height="27" viewBox="0 0 27 27" fill="none" xmlns="http://www.w3.org/2000/svg">
<path opacity="0.2" d="M24.1112 13.5558C24.1112 19.3772 19.376 24.1114 13.5557 24.1114C7.73534 24.1114 3.00012 19.3772 3.00012 13.5558C3.00012 7.73547 7.73534 3.00024 13.5557 3.00024C19.376 3.00024 24.1112 7.73547 24.1112 13.5558Z" fill="white"/>
<path d="M18.0109 12.0332C18.0109 12.2348 17.9338 12.4375 17.7797 12.5916L14.1169 16.2723C13.9681 16.4211 13.7665 16.5045 13.5554 16.5045C13.3453 16.5045 13.1437 16.4211 12.9949 16.2723L9.32996 12.5916C9.02174 12.2823 9.02174 11.782 9.33207 11.4727C9.64241 11.1645 10.1438 11.1655 10.452 11.4748L13.5554 14.5919L16.6587 11.4748C16.9669 11.1655 17.4672 11.1645 17.7776 11.4727C17.9338 11.6268 18.0109 11.8305 18.0109 12.0332Z" fill="white"/>
</svg>
