<svg width="24" height="24" viewBox="0 0 24 24" fill="none" xmlns="http://www.w3.org/2000/svg">
<path opacity="0.4" d="M10.0342 15.8293H3.6718C2.86655 15.8293 2.21289 16.4715 2.21289 17.2627C2.21289 18.0527 2.86655 18.696 3.6718 18.696H10.0342C10.8395 18.696 11.4931 18.0527 11.4931 17.2627C11.4931 16.4715 10.8395 15.8293 10.0342 15.8293Z" fill="white"/>
<path opacity="0.4" d="M21.5647 6.56044C21.5647 5.77037 20.911 5.12817 20.1068 5.12817H13.7444C12.9392 5.12817 12.2855 5.77037 12.2855 6.56044C12.2855 7.35156 12.9392 7.99376 13.7444 7.99376H20.1068C20.911 7.99376 21.5647 7.35156 21.5647 6.56044Z" fill="white"/>
<path d="M8.86774 6.56033C8.86774 8.3665 7.37873 9.83046 5.54032 9.83046C3.70297 9.83046 2.21289 8.3665 2.21289 6.56033C2.21289 4.75521 3.70297 3.29126 5.54032 3.29126C7.37873 3.29126 8.86774 4.75521 8.86774 6.56033Z" fill="white"/>
<path d="M21.5647 17.224C21.5647 19.0291 20.0757 20.4931 18.2373 20.4931C16.3999 20.4931 14.9098 19.0291 14.9098 17.224C14.9098 15.4178 16.3999 13.9539 18.2373 13.9539C20.0757 13.9539 21.5647 15.4178 21.5647 17.224Z" fill="white"/>
</svg>
