<svg width="29" height="30" viewBox="0 0 29 30" fill="none" xmlns="http://www.w3.org/2000/svg">
<path fill-rule="evenodd" clip-rule="evenodd" d="M14.632 13.3162C13.7017 13.3162 12.9459 14.0719 12.9459 14.9994C12.9459 15.9283 13.7017 16.6855 14.632 16.6855C15.5623 16.6855 16.3181 15.9283 16.3181 14.9994C16.3181 14.0719 15.5623 13.3162 14.632 13.3162ZM8.32792 13.3162C7.39762 13.3162 6.64185 14.072 6.64185 14.9995C6.64185 15.9284 7.39762 16.6855 8.32792 16.6855C9.25822 16.6855 10.014 15.9284 10.014 14.9995C10.014 14.072 9.25822 13.3162 8.32792 13.3162ZM19.2501 14.9994C19.2501 14.0719 20.0059 13.3162 20.9362 13.3162C21.8665 13.3162 22.6223 14.0719 22.6223 14.9994C22.6223 15.9283 21.8665 16.6855 20.9362 16.6855C20.0059 16.6855 19.2501 15.9283 19.2501 14.9994Z" fill="white"/>
</svg>
