<svg width="175" height="707" viewBox="0 0 175 707" fill="none" xmlns="http://www.w3.org/2000/svg">
<g opacity="0.1">
<path fill-rule="evenodd" clip-rule="evenodd" d="M586.452 30.2769C582.582 17.6842 570.949 9.08976 557.776 9.08976H266.484C253.31 9.08976 241.678 17.6843 237.808 30.2769L146.704 326.722C143.024 338.695 147.171 351.694 157.104 359.325L393.85 541.2C404.627 549.48 419.625 549.48 430.402 541.2L667.155 359.325C677.089 351.694 681.235 338.695 677.556 326.721L586.452 30.2769ZM151.768 361.151C141.835 353.52 137.688 340.52 141.368 328.547L234.518 25.4916C238.388 12.8995 250.02 4.30566 263.194 4.30566H561.066C574.24 4.30566 585.872 12.8996 589.742 25.4916L682.891 328.547C686.572 340.52 682.425 353.52 672.491 361.151L430.402 547.125C419.625 555.404 404.627 555.404 393.85 547.124L151.768 361.151Z" fill="white"/>
<path fill-rule="evenodd" clip-rule="evenodd" d="M594.249 18.4443C590.378 5.85357 578.746 -2.73905 565.574 -2.73905H258.678C245.506 -2.73905 233.874 5.85383 230.003 18.4448L134.08 330.446C130.398 342.421 134.546 355.423 144.482 363.055L393.853 554.57C404.63 562.847 419.623 562.847 430.399 554.571L679.777 363.055C689.714 355.424 693.862 342.421 690.179 330.445L594.249 18.4443ZM124.26 353.007C123.521 352.435 123.214 351.466 123.489 350.573L226.97 14.0076C230.841 1.41683 242.473 -7.17578 255.645 -7.17578H568.622C581.794 -7.17578 593.426 1.41714 597.297 14.0082L695.104 332.139C698.786 344.115 694.638 357.117 684.701 364.748L430.399 560.048C419.622 568.324 404.63 568.324 393.853 560.048L124.26 353.007Z" fill="white"/>
<path fill-rule="evenodd" clip-rule="evenodd" d="M602.042 6.58943C598.171 -6.00058 586.54 -14.5925 573.368 -14.5925H250.893C237.721 -14.5925 226.089 -6.0003 222.218 6.58999L121.484 334.178C117.801 346.155 121.95 359.16 131.889 366.791L393.86 567.939C404.635 576.212 419.625 576.212 430.4 567.939L692.378 366.791C702.317 359.16 706.466 346.155 702.783 334.178L602.042 6.58943ZM127.348 368.344C117.409 360.713 113.26 347.708 116.944 335.731L219.419 2.52414C223.29 -10.0656 234.922 -18.6572 248.093 -18.6572H576.174C589.346 -18.6572 600.977 -10.0653 604.849 2.52469L707.317 335.731C711 347.708 706.851 360.713 696.912 368.344L430.4 572.971C419.625 581.244 404.635 581.244 393.86 572.971L127.348 368.344Z" fill="white"/>
<path fill-rule="evenodd" clip-rule="evenodd" d="M704.994 370.533C714.936 362.902 719.086 349.895 715.401 337.916L609.847 -5.24928C605.975 -17.8384 594.344 -26.4294 581.173 -26.4294H243.094C229.923 -26.4294 218.293 -17.8386 214.42 -5.24982L108.859 337.916C105.174 349.895 109.324 362.902 119.266 370.534L393.863 581.317C404.637 589.587 419.623 589.587 430.397 581.317L704.994 370.533ZM99.6338 360.055C99.0132 359.578 98.7543 358.765 98.9844 358.017L217.98 -28.8582C218.217 -29.6198 218.922 -30.1387 219.72 -30.1387H583.722C596.893 -30.1387 608.524 -21.5477 612.396 -8.95867L719.529 339.337C723.214 351.316 719.064 364.323 709.122 371.954L413.162 599.131C412.553 599.594 411.709 599.592 411.101 599.126L99.6338 360.055Z" fill="white"/>
<path fill-rule="evenodd" clip-rule="evenodd" d="M617.645 -17.0961C613.772 -29.6843 602.142 -38.2744 588.972 -38.2744H235.288C222.118 -38.2744 210.487 -29.6843 206.615 -17.096L96.2475 341.639C92.5616 353.619 96.7128 366.628 106.657 374.259L393.869 594.677C404.642 602.944 419.625 602.944 430.398 594.677L717.604 374.26C727.547 366.628 731.698 353.619 728.012 341.639L617.645 -17.0961ZM102.927 375.548C92.9829 367.917 88.8315 354.907 92.5176 342.926L204.315 -20.4421C208.188 -33.0301 219.818 -41.6201 232.989 -41.6201H591.271C604.441 -41.6201 616.072 -33.0301 619.945 -20.4421L731.742 342.927C735.428 354.907 731.277 367.917 721.333 375.548L430.398 598.816C419.625 607.084 404.642 607.084 393.87 598.817L102.927 375.548Z" fill="white"/>
<path fill-rule="evenodd" clip-rule="evenodd" d="M625.436 -28.9441C621.563 -41.5313 609.933 -50.1204 596.763 -50.1204H227.489C214.319 -50.1204 202.689 -41.5313 198.816 -28.9442L83.621 345.384C79.9336 357.366 84.0859 370.378 94.0325 378.009L393.868 608.053C404.64 616.318 419.62 616.318 430.391 608.053L730.22 378.009C740.166 370.378 744.319 357.366 740.631 345.384L625.436 -28.9441ZM75 367.091C74.5022 366.714 74.2931 366.066 74.4768 365.47L202.955 -52.07C203.146 -52.684 203.714 -53.1025 204.357 -53.1025H598.827C611.997 -53.1025 623.627 -44.513 627.501 -31.9254L749.768 365.431C749.961 366.051 749.746 366.726 749.231 367.122L430.391 611.738C419.62 620.002 404.64 620.002 393.869 611.738L75 367.091Z" fill="white"/>
<path fill-rule="evenodd" clip-rule="evenodd" d="M633.242 -39.3553C629.368 -51.9417 617.739 -60.53 604.57 -60.53H219.69C206.521 -60.53 194.891 -51.9416 191.017 -39.3552L71.0091 350.542C67.3206 362.526 71.4737 375.539 81.4221 383.171L393.867 622.848C404.638 631.11 419.615 631.11 430.385 622.848L742.837 383.171C752.786 375.539 756.939 362.526 753.251 350.542L633.242 -39.3553ZM62.6831 372.038C62.2455 371.7 62.0633 371.126 62.2259 370.597L195.446 -62.2398C195.619 -62.781 196.121 -63.1484 196.689 -63.1484H606.37C619.538 -63.1484 631.168 -54.5604 635.042 -41.9744L762.03 370.567C762.195 371.114 762.004 371.706 761.551 372.053L430.386 626.094C419.615 634.356 404.637 634.356 393.866 626.094L62.6831 372.038Z" fill="white"/>
<path fill-rule="evenodd" clip-rule="evenodd" d="M755.433 386.911C765.383 379.28 769.537 366.265 765.848 354.28L641.036 -51.1764C637.162 -63.7623 625.532 -72.3502 612.364 -72.3502H211.904C198.735 -72.3502 187.106 -63.7625 183.232 -51.1768L58.4125 354.28C54.723 366.265 58.8769 379.28 68.827 386.911L393.872 636.215C404.643 644.475 419.617 644.475 430.388 636.215L755.433 386.911ZM50.3817 375.563C49.9964 375.27 49.8349 374.768 49.9772 374.305L187.95 -73.8369C188.094 -74.3081 188.529 -74.6299 189.022 -74.6299H613.921C627.09 -74.6299 638.719 -66.0423 642.593 -53.4567L774.277 374.291C774.423 374.762 774.26 375.275 773.868 375.575L412.764 652.523C412.391 652.814 411.867 652.817 411.492 652.529L50.3817 375.563Z" fill="white"/>
<path fill-rule="evenodd" clip-rule="evenodd" d="M648.834 -63.0311C644.96 -75.6163 633.331 -84.2034 620.163 -84.2034H204.097C190.929 -84.2034 179.3 -75.6165 175.425 -63.0315L45.7846 358.013C42.0941 369.999 46.2487 383.016 56.2006 390.647L393.87 649.59C404.64 657.848 419.612 657.848 430.382 649.59L768.052 390.647C778.003 383.016 782.158 369.999 778.468 358.013L648.834 -63.0311ZM38.0491 379.092C37.7331 378.843 37.6028 378.426 37.7212 378.041L180.434 -85.4423C180.55 -85.8388 180.913 -86.1113 181.327 -86.1113H621.47C634.638 -86.1113 646.267 -77.5246 650.142 -64.9398L786.539 378.027C786.657 378.419 786.52 378.844 786.195 379.094L430.381 651.937C419.612 660.195 404.64 660.195 393.871 651.937L38.0491 379.092Z" fill="white"/>
<path fill-rule="evenodd" clip-rule="evenodd" d="M780.67 394.384C790.624 386.752 794.779 373.734 791.088 361.746L656.633 -74.8783C652.758 -87.4628 641.129 -96.0492 627.962 -96.0492H196.306C183.138 -96.0492 171.51 -87.463 167.634 -74.8787L33.1724 361.746C29.4808 373.734 33.6364 386.752 43.5905 394.384L393.877 662.941C404.645 671.197 419.615 671.197 430.383 662.941L780.67 394.384ZM25.7477 382.605C25.484 382.401 25.3744 382.055 25.4724 381.737L172.925 -97.0652C173.023 -97.3795 173.314 -97.5938 173.643 -97.5938H629.026C642.194 -97.5938 653.822 -89.0074 657.697 -76.423L798.786 381.738C798.885 382.055 798.775 382.401 798.511 382.603L412.568 678.512C412.31 678.712 411.949 678.713 411.69 678.514L25.7477 382.605Z" fill="white"/>
<path fill-rule="evenodd" clip-rule="evenodd" d="M793.309 398.993C803.246 391.362 807.394 378.36 803.712 366.384L664.418 -86.7159C660.547 -99.3071 648.915 -107.9 635.743 -107.9H188.517C175.344 -107.9 163.713 -99.3073 159.842 -86.7163L20.5402 366.384C16.8584 378.36 21.0064 391.362 30.943 398.993L393.85 677.698C404.626 685.973 419.619 685.974 430.395 677.698L793.309 398.993ZM13.4306 387.005C13.229 386.856 13.1433 386.596 13.2169 386.357L159.027 -87.8916C162.899 -100.482 174.53 -109.075 187.703 -109.075H636.557C649.73 -109.075 661.361 -100.482 665.232 -87.8916L805.042 366.839C808.724 378.815 804.576 391.817 794.639 399.449L412.451 692.947C412.257 693.098 411.986 693.099 411.791 692.949L13.4306 387.005Z" fill="white"/>
<path fill-rule="evenodd" clip-rule="evenodd" d="M158.288 -120.557C158.109 -120.557 157.951 -120.439 157.9 -120.267L0.965966 390.064C0.913417 390.235 0.972159 390.42 1.11347 390.53L411.899 705.943C412.035 706.047 412.224 706.045 412.357 705.938L823.15 390.526C823.29 390.418 823.35 390.237 823.303 390.067L672.795 -99.3744C668.923 -111.965 657.292 -120.557 644.12 -120.557H158.288ZM18.3257 402.726C8.38649 395.095 4.23746 382.09 7.92088 370.112L152.052 -98.5561C155.923 -111.146 167.555 -119.738 180.726 -119.738H643.541C656.713 -119.738 668.344 -111.146 672.216 -98.5557L816.339 370.113C820.023 382.09 815.873 395.095 805.934 402.726L430.4 691.059C419.625 699.332 404.635 699.332 393.86 691.059L18.3257 402.726Z" fill="white"/>
</g>
</svg>
