<svg width="24" height="24" viewBox="0 0 24 24" fill="none" xmlns="http://www.w3.org/2000/svg">
<path d="M12.0446 14.6078C10.4921 14.6078 9.23629 13.3983 9.23629 11.8792C9.23629 10.36 10.4921 9.14087 12.0446 9.14087C13.5971 9.14087 14.8232 10.36 14.8232 11.8792C14.8232 13.3983 13.5971 14.6078 12.0446 14.6078Z" fill="white"/>
<path opacity="0.2" d="M20.964 14.1625C20.7761 13.8722 20.5091 13.5819 20.163 13.3981C19.8862 13.2626 19.7082 13.0401 19.5499 12.7788C19.0456 11.9467 19.3423 10.8533 20.1828 10.3598C21.1716 9.80831 21.4881 8.57947 20.9145 7.62155L20.252 6.47979C19.6884 5.52188 18.4523 5.18322 17.4734 5.74442C16.6032 6.20887 15.4858 5.89924 14.9815 5.07679C14.8233 4.80586 14.7343 4.51558 14.7541 4.2253C14.7837 3.84794 14.6651 3.48993 14.4871 3.19966C14.1212 2.59975 13.4587 2.19336 12.727 2.19336H11.3327C10.6108 2.21271 9.94833 2.59975 9.58246 3.19966C9.39458 3.48993 9.28581 3.84794 9.30558 4.2253C9.32536 4.51558 9.23636 4.80586 9.07815 5.07679C8.57384 5.89924 7.45645 6.20887 6.59616 5.74442C5.60733 5.18322 4.38117 5.52188 3.80764 6.47979L3.14512 7.62155C2.58148 8.57947 2.89791 9.80831 3.87686 10.3598C4.71737 10.8533 5.01402 11.9467 4.5196 12.7788C4.3515 13.0401 4.17351 13.2626 3.89664 13.3981C3.56043 13.5819 3.26378 13.8722 3.10557 14.1625C2.7397 14.7624 2.75947 15.5171 3.12534 16.146L3.80764 17.3072C4.17351 17.9264 4.85581 18.3135 5.56777 18.3135C5.90398 18.3135 6.29951 18.2167 6.61594 18.0232C6.86315 17.8587 7.1598 17.8006 7.48612 17.8006C8.46507 17.8006 9.28581 18.6037 9.30558 19.5616C9.30558 20.6744 10.2153 21.5452 11.3624 21.5452H12.7072C13.8443 21.5452 14.7541 20.6744 14.7541 19.5616C14.7837 18.6037 15.6045 17.8006 16.5834 17.8006C16.8999 17.8006 17.1965 17.8587 17.4536 18.0232C17.77 18.2167 18.1557 18.3135 18.5018 18.3135C19.2039 18.3135 19.8862 17.9264 20.252 17.3072L20.9442 16.146C21.3002 15.4978 21.3299 14.7624 20.964 14.1625Z" fill="white"/>
</svg>
