<svg width="359" height="342" viewBox="0 0 359 342" fill="none" xmlns="http://www.w3.org/2000/svg">
<g opacity="0.1">
<mask id="path-1-inside-1_1_515" fill="white">
<path fill-rule="evenodd" clip-rule="evenodd" d="M89.7368 0.5C89.7368 0.5 93.6978 37.4711 109.127 52.8998C124.555 68.3285 161.526 72.2895 161.526 72.2895C161.526 72.2895 124.555 76.2505 109.127 91.6792C93.6979 107.108 89.7368 144.079 89.7368 144.079C89.7368 144.079 85.7758 107.108 70.3472 91.6792C54.9185 76.2505 17.9474 72.2895 17.9474 72.2895C17.9474 72.2895 54.9185 68.3285 70.3472 52.8998C85.7758 37.4711 89.7368 0.5 89.7368 0.5ZM251.262 54.3422C251.262 54.3422 257.204 109.799 280.347 132.942C303.49 156.085 358.947 162.026 358.947 162.026C358.947 162.026 303.49 167.968 280.347 191.111C257.204 214.254 251.262 269.711 251.262 269.711C251.262 269.711 245.321 214.254 222.178 191.111C199.035 167.968 143.578 162.026 143.578 162.026C143.578 162.026 199.035 156.085 222.178 132.942C245.321 109.799 251.262 54.3422 251.262 54.3422ZM113.974 227.526C94.6881 208.24 89.7368 162.026 89.7368 162.026C89.7368 162.026 84.7856 208.24 65.4997 227.526C46.2139 246.812 0 251.763 0 251.763C0 251.763 46.2139 256.714 65.4997 276C84.7856 295.286 89.7368 341.5 89.7368 341.5C89.7368 341.5 94.6881 295.286 113.974 276C133.26 256.714 179.474 251.763 179.474 251.763C179.474 251.763 133.26 246.812 113.974 227.526Z"/>
</mask>
<path d="M89.7368 0.5L90.7312 0.393472L88.7425 0.393472L89.7368 0.5ZM161.526 72.2895L161.633 73.2838V71.2952L161.526 72.2895ZM109.127 91.6792L108.419 90.972L109.127 91.6792ZM89.7368 144.079L88.7425 144.185H90.7312L89.7368 144.079ZM70.3472 91.6792L69.6401 92.3863L70.3472 91.6792ZM17.9474 72.2895L17.8408 71.2952V73.2838L17.9474 72.2895ZM70.3472 52.8998L69.6401 52.1927L70.3472 52.8998ZM251.262 54.3422L252.257 54.2356H250.268L251.262 54.3422ZM358.947 162.026L359.053 163.021V161.032L358.947 162.026ZM251.262 269.711L250.268 269.817H252.257L251.262 269.711ZM222.178 191.111L222.885 190.404L222.178 191.111ZM143.578 162.026L143.472 161.032V163.021L143.578 162.026ZM89.7368 162.026L90.7311 161.92H88.7425L89.7368 162.026ZM113.974 227.526L113.267 228.233L113.974 227.526ZM65.4997 227.526L66.2069 228.233L65.4997 227.526ZM0 251.763L-0.106528 250.769L-0.106528 252.757L0 251.763ZM65.4997 276L66.2069 275.293L65.4997 276ZM89.7368 341.5L88.7425 341.607H90.7311L89.7368 341.5ZM113.974 276L113.267 275.293L113.974 276ZM179.474 251.763L179.58 252.757V250.769L179.474 251.763ZM109.834 52.1927C102.323 44.6816 97.5272 31.8133 94.6134 20.6614C93.1637 15.1126 92.1923 10.0402 91.5835 6.35482C91.2791 4.51275 91.0657 3.01876 90.9285 1.98692C90.8598 1.47103 90.8103 1.07078 90.778 0.800424C90.7619 0.66525 90.7501 0.56256 90.7423 0.494138C90.7385 0.459927 90.7356 0.434283 90.7338 0.417431C90.7328 0.409005 90.7322 0.402777 90.7317 0.398774C90.7315 0.396773 90.7314 0.395328 90.7313 0.394443C90.7312 0.394001 90.7312 0.393758 90.7312 0.393536C90.7312 0.393434 90.7312 0.393472 89.7368 0.5C88.7425 0.606528 88.7426 0.606848 88.7426 0.607309C88.7427 0.60765 88.7427 0.608252 88.7428 0.608934C88.7429 0.610299 88.7431 0.612225 88.7434 0.614709C88.744 0.619677 88.7447 0.626876 88.7458 0.636279C88.7478 0.655085 88.7509 0.682706 88.755 0.718919C88.7632 0.791343 88.7755 0.898138 88.7922 1.03752C88.8254 1.31626 88.8761 1.72538 88.9459 2.25056C89.0856 3.30084 89.3021 4.81576 89.6102 6.6808C90.2262 10.4097 91.2094 15.5444 92.6784 21.1669C95.6023 32.3578 100.502 45.6893 108.419 53.6069L109.834 52.1927ZM161.526 72.2895C161.633 71.2952 161.633 71.2952 161.633 71.2952C161.633 71.2951 161.632 71.2951 161.632 71.2951C161.631 71.295 161.63 71.2948 161.628 71.2946C161.624 71.2942 161.617 71.2935 161.609 71.2925C161.592 71.2907 161.566 71.2878 161.532 71.284C161.464 71.2762 161.361 71.2644 161.226 71.2483C160.956 71.216 160.555 71.1665 160.039 71.0979C159.008 70.9606 157.514 70.7472 155.671 70.4429C151.986 69.834 146.914 68.8626 141.365 67.4129C130.213 64.4991 117.345 59.7038 109.834 52.1927L108.419 53.6069C116.337 61.5245 129.669 66.424 140.859 69.3479C146.482 70.817 151.617 71.8001 155.346 72.4161C157.211 72.7242 158.725 72.9407 159.776 73.0804C160.301 73.1503 160.71 73.2009 160.989 73.2342C161.128 73.2508 161.235 73.2631 161.307 73.2713C161.344 73.2754 161.371 73.2785 161.39 73.2805C161.399 73.2816 161.407 73.2824 161.412 73.2829C161.414 73.2832 161.416 73.2834 161.417 73.2835C161.418 73.2836 161.419 73.2837 161.419 73.2837C161.419 73.2838 161.42 73.2838 161.526 72.2895ZM109.834 92.3863C117.345 84.8752 130.213 80.0798 141.365 77.1661C146.914 75.7163 151.986 74.7449 155.671 74.1361C157.514 73.8318 159.008 73.6183 160.039 73.4811C160.555 73.4125 160.956 73.363 161.226 73.3307C161.361 73.3145 161.464 73.3027 161.532 73.295C161.566 73.2911 161.592 73.2883 161.609 73.2864C161.617 73.2855 161.624 73.2848 161.628 73.2844C161.63 73.2841 161.631 73.284 161.632 73.2839C161.632 73.2838 161.633 73.2838 161.633 73.2838C161.633 73.2838 161.633 73.2838 161.526 72.2895C161.42 71.2952 161.419 71.2952 161.419 71.2952C161.419 71.2953 161.418 71.2953 161.417 71.2954C161.416 71.2956 161.414 71.2958 161.412 71.2961C161.407 71.2966 161.399 71.2974 161.39 71.2984C161.371 71.3005 161.344 71.3036 161.307 71.3076C161.235 71.3158 161.128 71.3281 160.989 71.3448C160.71 71.3781 160.301 71.4287 159.776 71.4985C158.725 71.6382 157.211 71.8547 155.346 72.1628C151.617 72.7788 146.482 73.762 140.859 75.231C129.669 78.155 116.337 83.0545 108.419 90.972L109.834 92.3863ZM89.7368 144.079C90.7312 144.185 90.7312 144.186 90.7312 144.185C90.7312 144.185 90.7312 144.185 90.7313 144.185C90.7314 144.184 90.7315 144.182 90.7317 144.18C90.7322 144.176 90.7328 144.17 90.7338 144.162C90.7356 144.145 90.7385 144.119 90.7423 144.085C90.7501 144.016 90.7619 143.914 90.778 143.779C90.8103 143.508 90.8598 143.108 90.9285 142.592C91.0657 141.56 91.2791 140.066 91.5835 138.224C92.1923 134.539 93.1637 129.466 94.6135 123.918C97.5272 112.766 102.323 99.8974 109.834 92.3863L108.419 90.972C100.502 98.8896 95.6023 112.221 92.6784 123.412C91.2094 129.035 90.2262 134.169 89.6102 137.898C89.3021 139.763 89.0856 141.278 88.9459 142.328C88.8761 142.854 88.8254 143.263 88.7922 143.541C88.7755 143.681 88.7632 143.788 88.755 143.86C88.7509 143.896 88.7478 143.924 88.7458 143.943C88.7447 143.952 88.744 143.959 88.7434 143.964C88.7431 143.967 88.7429 143.969 88.7428 143.97C88.7427 143.971 88.7427 143.971 88.7426 143.972C88.7426 143.972 88.7425 143.972 89.7368 144.079ZM69.6401 92.3863C77.1512 99.8974 81.9465 112.766 84.8602 123.918C86.31 129.466 87.2814 134.539 87.8902 138.224C88.1945 140.066 88.408 141.56 88.5452 142.592C88.6138 143.108 88.6634 143.508 88.6956 143.779C88.7118 143.914 88.7236 144.016 88.7313 144.085C88.7352 144.119 88.7381 144.145 88.7399 144.162C88.7409 144.17 88.7415 144.176 88.742 144.18C88.7422 144.182 88.7423 144.184 88.7424 144.185C88.7425 144.185 88.7425 144.185 88.7425 144.185C88.7425 144.186 88.7425 144.185 89.7368 144.079C90.7312 143.972 90.7311 143.972 90.7311 143.972C90.731 143.971 90.731 143.971 90.7309 143.97C90.7308 143.969 90.7305 143.967 90.7303 143.964C90.7297 143.959 90.729 143.952 90.7279 143.943C90.7258 143.924 90.7228 143.896 90.7187 143.86C90.7105 143.788 90.6982 143.681 90.6815 143.541C90.6483 143.263 90.5976 142.854 90.5278 142.328C90.3881 141.278 90.1716 139.763 89.8635 137.898C89.2475 134.169 88.2643 129.035 86.7953 123.412C83.8714 112.221 78.9718 98.8896 71.0543 90.972L69.6401 92.3863ZM17.9474 72.2895C17.8408 73.2838 17.8408 73.2838 17.8409 73.2838C17.8411 73.2838 17.8414 73.2838 17.8418 73.2839C17.8427 73.284 17.8441 73.2841 17.8461 73.2844C17.8501 73.2848 17.8564 73.2855 17.8648 73.2864C17.8817 73.2883 17.9073 73.2911 17.9415 73.295C18.0099 73.3027 18.1126 73.3145 18.2478 73.3307C18.5181 73.363 18.9184 73.4125 19.4343 73.4811C20.4661 73.6183 21.9601 73.8318 23.8022 74.1361C27.4875 74.7449 32.5599 75.7163 38.1087 77.1661C49.2606 80.0798 62.129 84.8752 69.6401 92.3863L71.0543 90.972C63.1367 83.0545 49.8051 78.155 38.6143 75.231C32.9917 73.762 27.857 72.7788 24.1282 72.1628C22.2631 71.8547 20.7482 71.6382 19.6979 71.4985C19.1727 71.4287 18.7636 71.3781 18.4849 71.3448C18.3455 71.3281 18.2387 71.3158 18.1663 71.3076C18.1301 71.3036 18.1025 71.3005 18.0836 71.2984C18.0742 71.2974 18.067 71.2966 18.0621 71.2961C18.0596 71.2958 18.0577 71.2956 18.0563 71.2954C18.0556 71.2953 18.055 71.2953 18.0547 71.2952C18.0542 71.2952 18.0539 71.2952 17.9474 72.2895ZM69.6401 52.1927C62.129 59.7038 49.2606 64.4991 38.1087 67.4129C32.5599 68.8626 27.4875 69.834 23.8022 70.4429C21.9601 70.7472 20.4661 70.9606 19.4343 71.0979C18.9184 71.1665 18.5181 71.216 18.2478 71.2483C18.1126 71.2644 18.0099 71.2762 17.9415 71.284C17.9073 71.2878 17.8817 71.2907 17.8648 71.2925C17.8564 71.2935 17.8501 71.2942 17.8461 71.2946C17.8441 71.2948 17.8427 71.295 17.8418 71.2951C17.8414 71.2951 17.8411 71.2951 17.8409 71.2952C17.8408 71.2952 17.8408 71.2952 17.9474 72.2895C18.0539 73.2838 18.0542 73.2838 18.0547 73.2837C18.055 73.2837 18.0556 73.2836 18.0563 73.2835C18.0577 73.2834 18.0596 73.2832 18.0621 73.2829C18.067 73.2824 18.0742 73.2816 18.0836 73.2805C18.1025 73.2785 18.1301 73.2754 18.1663 73.2713C18.2387 73.2631 18.3455 73.2508 18.4849 73.2342C18.7636 73.2009 19.1727 73.1503 19.6979 73.0804C20.7482 72.9407 22.2631 72.7242 24.1282 72.4161C27.857 71.8001 32.9917 70.817 38.6143 69.3479C49.8051 66.424 63.1367 61.5245 71.0543 53.6069L69.6401 52.1927ZM89.7368 0.5C88.7425 0.393472 88.7425 0.393434 88.7425 0.393536C88.7425 0.393758 88.7425 0.394001 88.7424 0.394443C88.7423 0.395328 88.7422 0.396773 88.742 0.398774C88.7415 0.402777 88.7409 0.409005 88.7399 0.417431C88.7381 0.434283 88.7352 0.459926 88.7313 0.494137C88.7236 0.56256 88.7118 0.66525 88.6956 0.800424C88.6634 1.07078 88.6138 1.47103 88.5452 1.98692C88.408 3.01876 88.1945 4.51275 87.8902 6.35482C87.2814 10.0402 86.31 15.1126 84.8602 20.6614C81.9465 31.8133 77.1512 44.6816 69.6401 52.1927L71.0543 53.6069C78.9718 45.6893 83.8714 32.3578 86.7953 21.1669C88.2643 15.5444 89.2475 10.4097 89.8635 6.6808C90.1716 4.81576 90.3881 3.30084 90.5278 2.25056C90.5976 1.72538 90.6483 1.31626 90.6815 1.03752C90.6982 0.898138 90.7105 0.791343 90.7187 0.718919C90.7228 0.682706 90.7258 0.655085 90.7279 0.636279C90.729 0.626876 90.7297 0.619677 90.7303 0.614709C90.7305 0.612225 90.7308 0.610299 90.7309 0.608935C90.731 0.608252 90.731 0.607651 90.7311 0.607309C90.7311 0.606848 90.7312 0.606528 89.7368 0.5ZM281.054 132.235C269.686 120.866 262.467 101.448 258.093 84.7106C255.914 76.369 254.454 68.7448 253.539 63.2059C253.082 60.437 252.761 58.1908 252.554 56.6384C252.451 55.8623 252.376 55.2597 252.328 54.8521C252.303 54.6483 252.285 54.4932 252.274 54.3896C252.268 54.3377 252.264 54.2988 252.261 54.273C252.259 54.2601 252.258 54.2506 252.258 54.2443C252.257 54.2412 252.257 54.2389 252.257 54.2374C252.257 54.2367 252.257 54.2363 252.257 54.2359C252.257 54.2357 252.257 54.2356 251.262 54.3422C250.268 54.4487 250.268 54.4491 250.268 54.4497C250.268 54.4502 250.268 54.451 250.268 54.4519C250.269 54.4539 250.269 54.4566 250.269 54.4602C250.27 54.4675 250.271 54.478 250.273 54.4919C250.276 54.5196 250.28 54.5605 250.286 54.6143C250.299 54.722 250.317 54.8811 250.342 55.0892C250.391 55.5052 250.467 56.1166 250.572 56.9021C250.78 58.4729 251.104 60.74 251.566 63.5319C252.488 69.1143 253.96 76.8008 256.158 85.2162C260.542 101.993 267.865 121.874 279.64 133.649L281.054 132.235ZM358.947 162.026C359.053 161.032 359.053 161.032 359.053 161.032C359.052 161.032 359.052 161.032 359.051 161.032C359.05 161.032 359.048 161.031 359.044 161.031C359.038 161.03 359.029 161.029 359.016 161.028C358.99 161.025 358.951 161.021 358.899 161.015C358.796 161.003 358.64 160.985 358.437 160.961C358.029 160.912 357.426 160.838 356.65 160.735C355.098 160.528 352.852 160.207 350.083 159.75C344.544 158.835 336.92 157.375 328.578 155.195C311.841 150.822 292.422 143.603 281.054 132.235L279.64 133.649C291.414 145.424 311.296 152.747 328.073 157.13C336.488 159.329 344.174 160.801 349.757 161.723C352.549 162.184 354.816 162.508 356.387 162.717C357.172 162.822 357.784 162.897 358.2 162.947C358.408 162.972 358.567 162.99 358.674 163.002C358.728 163.008 358.769 163.013 358.797 163.016C358.811 163.017 358.821 163.019 358.828 163.019C358.832 163.02 358.835 163.02 358.837 163.02C358.838 163.02 358.839 163.021 358.839 163.021C358.84 163.021 358.84 163.021 358.947 162.026ZM281.054 191.818C292.422 180.45 311.841 173.231 328.578 168.858C336.92 166.678 344.544 165.218 350.083 164.303C352.852 163.846 355.098 163.525 356.65 163.318C357.426 163.215 358.029 163.14 358.437 163.092C358.64 163.067 358.796 163.049 358.899 163.038C358.951 163.032 358.99 163.028 359.016 163.025C359.029 163.023 359.038 163.022 359.044 163.022C359.048 163.021 359.05 163.021 359.051 163.021C359.052 163.021 359.052 163.021 359.053 163.021C359.053 163.021 359.053 163.021 358.947 162.026C358.84 161.032 358.84 161.032 358.839 161.032C358.839 161.032 358.838 161.032 358.837 161.032C358.835 161.033 358.832 161.033 358.828 161.033C358.821 161.034 358.811 161.035 358.797 161.037C358.769 161.04 358.728 161.044 358.674 161.05C358.567 161.063 358.408 161.081 358.2 161.106C357.784 161.155 357.172 161.231 356.387 161.336C354.816 161.544 352.549 161.868 349.757 162.33C344.174 163.252 336.488 164.724 328.073 166.922C311.296 171.306 291.414 178.629 279.64 190.404L281.054 191.818ZM251.262 269.711C252.257 269.817 252.257 269.817 252.257 269.817C252.257 269.816 252.257 269.816 252.257 269.815C252.257 269.814 252.257 269.812 252.258 269.808C252.258 269.802 252.259 269.793 252.261 269.78C252.264 269.754 252.268 269.715 252.274 269.663C252.285 269.56 252.303 269.404 252.328 269.201C252.376 268.793 252.451 268.19 252.554 267.414C252.761 265.862 253.082 263.616 253.539 260.847C254.454 255.308 255.914 247.684 258.093 239.342C262.467 222.605 269.686 203.186 281.054 191.818L279.64 190.404C267.865 202.179 260.542 222.06 256.158 238.837C253.96 247.252 252.488 254.938 251.566 260.521C251.104 263.313 250.78 265.58 250.572 267.151C250.467 267.936 250.391 268.548 250.342 268.964C250.317 269.172 250.299 269.331 250.286 269.438C250.28 269.492 250.276 269.533 250.273 269.561C250.271 269.575 250.27 269.585 250.269 269.592C250.269 269.596 250.269 269.599 250.268 269.601C250.268 269.602 250.268 269.603 250.268 269.603C250.268 269.604 250.268 269.604 251.262 269.711ZM221.471 191.818C232.839 203.186 240.058 222.605 244.431 239.342C246.611 247.684 248.071 255.308 248.986 260.847C249.443 263.616 249.764 265.862 249.971 267.414C250.074 268.19 250.148 268.793 250.197 269.201C250.221 269.404 250.239 269.56 250.251 269.663C250.257 269.715 250.261 269.754 250.264 269.78C250.265 269.793 250.266 269.802 250.267 269.808C250.267 269.812 250.268 269.814 250.268 269.815C250.268 269.816 250.268 269.816 250.268 269.817C250.268 269.817 250.268 269.817 251.262 269.711C252.257 269.604 252.257 269.604 252.257 269.603C252.256 269.603 252.256 269.602 252.256 269.601C252.256 269.599 252.256 269.596 252.255 269.592C252.255 269.585 252.253 269.575 252.252 269.561C252.249 269.533 252.244 269.492 252.238 269.438C252.226 269.331 252.208 269.172 252.183 268.964C252.133 268.548 252.058 267.936 251.953 267.151C251.744 265.58 251.42 263.313 250.959 260.521C250.037 254.938 248.565 247.252 246.366 238.837C241.983 222.06 234.66 202.179 222.885 190.404L221.471 191.818ZM143.578 162.026C143.472 163.021 143.472 163.021 143.472 163.021C143.472 163.021 143.473 163.021 143.473 163.021C143.475 163.021 143.477 163.021 143.48 163.022C143.487 163.022 143.496 163.023 143.509 163.025C143.535 163.028 143.574 163.032 143.626 163.038C143.729 163.049 143.884 163.067 144.088 163.092C144.496 163.14 145.098 163.215 145.874 163.318C147.427 163.525 149.673 163.846 152.442 164.303C157.981 165.218 165.605 166.678 173.947 168.858C190.684 173.231 210.102 180.45 221.471 191.818L222.885 190.404C211.11 178.629 191.229 171.306 174.452 166.922C166.037 164.724 158.35 163.252 152.768 162.33C149.976 161.868 147.709 161.544 146.138 161.336C145.353 161.231 144.741 161.155 144.325 161.106C144.117 161.081 143.958 161.063 143.85 161.05C143.796 161.044 143.756 161.04 143.728 161.037C143.714 161.035 143.703 161.034 143.696 161.033C143.693 161.033 143.69 161.033 143.688 161.032C143.687 161.032 143.686 161.032 143.686 161.032C143.685 161.032 143.685 161.032 143.578 162.026ZM221.471 132.235C210.102 143.603 190.684 150.822 173.947 155.195C165.605 157.375 157.981 158.835 152.442 159.75C149.673 160.207 147.427 160.528 145.874 160.735C145.098 160.838 144.496 160.912 144.088 160.961C143.884 160.985 143.729 161.003 143.626 161.015C143.574 161.021 143.535 161.025 143.509 161.028C143.496 161.029 143.487 161.03 143.48 161.031C143.477 161.031 143.475 161.032 143.473 161.032C143.473 161.032 143.472 161.032 143.472 161.032C143.472 161.032 143.472 161.032 143.578 162.026C143.685 163.021 143.685 163.021 143.686 163.021C143.686 163.021 143.687 163.02 143.688 163.02C143.69 163.02 143.693 163.02 143.696 163.019C143.703 163.019 143.714 163.017 143.728 163.016C143.756 163.013 143.796 163.008 143.85 163.002C143.958 162.99 144.117 162.972 144.325 162.947C144.741 162.897 145.353 162.822 146.138 162.717C147.709 162.508 149.976 162.184 152.768 161.723C158.35 160.801 166.037 159.329 174.452 157.13C191.229 152.747 211.11 145.424 222.885 133.649L221.471 132.235ZM251.262 54.3422C250.268 54.2356 250.268 54.2357 250.268 54.2359C250.268 54.2363 250.268 54.2367 250.268 54.2374C250.268 54.2389 250.267 54.2412 250.267 54.2443C250.266 54.2506 250.265 54.2601 250.264 54.273C250.261 54.2988 250.257 54.3377 250.251 54.3896C250.239 54.4932 250.221 54.6483 250.197 54.8521C250.148 55.2597 250.074 55.8623 249.971 56.6384C249.764 58.1908 249.443 60.437 248.986 63.2059C248.071 68.7448 246.611 76.369 244.431 84.7106C240.058 101.448 232.839 120.866 221.471 132.235L222.885 133.649C234.66 121.874 241.983 101.993 246.366 85.2162C248.565 76.8008 250.037 69.1143 250.959 63.5319C251.42 60.74 251.744 58.4729 251.953 56.9021C252.058 56.1166 252.133 55.5052 252.183 55.0892C252.208 54.8811 252.226 54.722 252.238 54.6143C252.244 54.5605 252.249 54.5196 252.252 54.4919C252.253 54.478 252.255 54.4675 252.255 54.4602C252.256 54.4566 252.256 54.4539 252.256 54.4519C252.256 54.451 252.256 54.4502 252.257 54.4497C252.257 54.4491 252.257 54.4487 251.262 54.3422ZM89.7368 162.026C88.7425 162.133 88.7426 162.133 88.7426 162.134C88.7427 162.134 88.7427 162.135 88.7428 162.136C88.743 162.137 88.7433 162.14 88.7436 162.143C88.7443 162.149 88.7452 162.158 88.7465 162.169C88.7491 162.193 88.7529 162.227 88.758 162.272C88.7682 162.362 88.7835 162.495 88.8042 162.669C88.8457 163.016 88.9088 163.526 88.996 164.182C89.1703 165.492 89.4405 167.383 89.8252 169.712C90.5943 174.367 91.8218 180.778 93.6557 187.797C97.3093 201.78 103.421 218.387 113.267 228.233L114.681 226.819C105.241 217.379 99.2342 201.236 95.5907 187.291C93.7761 180.346 92.5604 173.998 91.7984 169.386C91.4176 167.08 91.1504 165.21 90.9785 163.918C90.8926 163.272 90.8306 162.77 90.7901 162.431C90.7699 162.262 90.755 162.133 90.7453 162.047C90.7404 162.004 90.7368 161.972 90.7345 161.95C90.7333 161.94 90.7325 161.932 90.7319 161.927C90.7316 161.924 90.7314 161.922 90.7313 161.921C90.7312 161.921 90.7312 161.92 90.7312 161.92C90.7311 161.92 90.7311 161.92 89.7368 162.026ZM66.2069 228.233C76.053 218.387 82.1644 201.78 85.818 187.797C87.6519 180.778 88.8794 174.367 89.6485 169.712C90.0331 167.383 90.3034 165.492 90.4777 164.182C90.5648 163.526 90.628 163.016 90.6695 162.669C90.6902 162.495 90.7055 162.362 90.7157 162.272C90.7208 162.227 90.7246 162.193 90.7272 162.169C90.7285 162.158 90.7294 162.149 90.7301 162.143C90.7304 162.14 90.7307 162.137 90.7308 162.136C90.7309 162.135 90.731 162.134 90.7311 162.134C90.7311 162.133 90.7311 162.133 89.7368 162.026C88.7425 161.92 88.7425 161.92 88.7425 161.92C88.7425 161.92 88.7424 161.921 88.7424 161.921C88.7423 161.922 88.7421 161.924 88.7418 161.927C88.7412 161.932 88.7404 161.94 88.7392 161.95C88.7368 161.972 88.7332 162.004 88.7284 162.047C88.7187 162.133 88.7038 162.262 88.6836 162.431C88.6431 162.77 88.5811 163.272 88.4951 163.918C88.3233 165.21 88.0561 167.08 87.6752 169.386C86.9133 173.998 85.6976 180.346 83.883 187.291C80.2395 201.236 74.2323 217.379 64.7926 226.819L66.2069 228.233ZM0 251.763C0.106528 252.757 0.106883 252.757 0.107415 252.757C0.107826 252.757 0.108534 252.757 0.109357 252.757C0.111003 252.757 0.11335 252.757 0.116394 252.756C0.122484 252.756 0.131361 252.755 0.142993 252.753C0.166256 252.751 0.200535 252.747 0.245551 252.742C0.335581 252.732 0.468561 252.717 0.642258 252.696C0.989644 252.654 1.49993 252.591 2.15524 252.504C3.46579 252.33 5.35682 252.059 7.68526 251.675C12.3409 250.906 18.7515 249.678 25.7705 247.844C39.7541 244.191 56.3607 238.079 66.2069 228.233L64.7926 226.819C55.353 236.259 39.2097 242.266 25.2649 245.909C18.3197 247.724 11.9714 248.94 7.35927 249.702C5.05381 250.082 3.18371 250.35 1.8916 250.521C1.24558 250.607 0.744159 250.669 0.405167 250.71C0.235674 250.73 0.106798 250.745 0.0207696 250.755C-0.0222443 250.76 -0.0545454 250.763 -0.0758549 250.766C-0.0865097 250.767 -0.0944164 250.768 -0.0995402 250.768C-0.102102 250.768 -0.103968 250.769 -0.105134 250.769C-0.105718 250.769 -0.106066 250.769 -0.106358 250.769C-0.106531 250.769 -0.106528 250.769 0 251.763ZM66.2069 275.293C56.3607 265.447 39.7541 259.336 25.7705 255.682C18.7515 253.848 12.3409 252.621 7.68526 251.852C5.35682 251.467 3.46579 251.197 2.15524 251.022C1.49993 250.935 0.989644 250.872 0.642258 250.831C0.468562 250.81 0.335581 250.794 0.245551 250.784C0.200536 250.779 0.166257 250.775 0.142993 250.773C0.131362 250.772 0.122484 250.771 0.116395 250.77C0.11335 250.77 0.111003 250.769 0.109357 250.769C0.108534 250.769 0.107827 250.769 0.107415 250.769C0.106884 250.769 0.106528 250.769 0 251.763C-0.106528 252.757 -0.106531 252.757 -0.106358 252.757C-0.106066 252.758 -0.105718 252.758 -0.105135 252.758C-0.103969 252.758 -0.102102 252.758 -0.0995405 252.758C-0.0944167 252.759 -0.08651 252.76 -0.0758553 252.761C-0.0545457 252.763 -0.0222446 252.767 0.0207693 252.772C0.106798 252.781 0.235674 252.796 0.405166 252.816C0.744159 252.857 1.24558 252.919 1.8916 253.005C3.18371 253.177 5.05381 253.444 7.35927 253.825C11.9714 254.587 18.3197 255.802 25.2649 257.617C39.2097 261.26 55.353 267.268 64.7926 276.707L66.2069 275.293ZM89.7368 341.5C90.7311 341.393 90.7311 341.393 90.7311 341.393C90.731 341.392 90.7309 341.391 90.7308 341.391C90.7307 341.389 90.7304 341.387 90.7301 341.384C90.7294 341.378 90.7285 341.369 90.7272 341.357C90.7246 341.334 90.7208 341.299 90.7157 341.254C90.7055 341.164 90.6902 341.031 90.6695 340.858C90.628 340.51 90.5648 340 90.4777 339.345C90.3034 338.034 90.0331 336.143 89.6485 333.815C88.8794 329.159 87.6519 322.749 85.818 315.73C82.1644 301.746 76.053 285.139 66.2069 275.293L64.7926 276.707C74.2323 286.147 80.2395 302.29 83.883 316.235C85.6976 323.18 86.9133 329.529 87.6752 334.141C88.0561 336.446 88.3233 338.316 88.4951 339.608C88.5811 340.254 88.6431 340.756 88.6836 341.095C88.7038 341.264 88.7187 341.393 88.7284 341.479C88.7332 341.522 88.7368 341.555 88.7392 341.576C88.7404 341.587 88.7412 341.594 88.7418 341.6C88.7421 341.602 88.7423 341.604 88.7424 341.605C88.7424 341.606 88.7425 341.606 88.7425 341.606C88.7425 341.607 88.7425 341.607 89.7368 341.5ZM113.267 275.293C103.421 285.139 97.3093 301.746 93.6557 315.73C91.8218 322.749 90.5943 329.159 89.8252 333.815C89.4405 336.143 89.1703 338.034 88.996 339.345C88.9088 340 88.8457 340.51 88.8042 340.858C88.7835 341.031 88.7682 341.164 88.758 341.254C88.7529 341.299 88.7491 341.334 88.7465 341.357C88.7452 341.369 88.7443 341.378 88.7436 341.384C88.7433 341.387 88.743 341.389 88.7428 341.391C88.7427 341.391 88.7427 341.392 88.7426 341.393C88.7426 341.393 88.7425 341.393 89.7368 341.5C90.7311 341.607 90.7311 341.607 90.7312 341.606C90.7312 341.606 90.7312 341.606 90.7313 341.605C90.7314 341.604 90.7316 341.602 90.7319 341.6C90.7325 341.594 90.7333 341.587 90.7345 341.576C90.7368 341.555 90.7404 341.522 90.7453 341.479C90.755 341.393 90.7699 341.264 90.7901 341.095C90.8306 340.756 90.8926 340.254 90.9785 339.608C91.1504 338.316 91.4176 336.446 91.7984 334.141C92.5604 329.529 93.7761 323.18 95.5907 316.235C99.2342 302.29 105.241 286.147 114.681 276.707L113.267 275.293ZM179.474 251.763C179.367 250.769 179.367 250.769 179.366 250.769C179.366 250.769 179.365 250.769 179.364 250.769C179.363 250.769 179.36 250.77 179.357 250.77C179.351 250.771 179.342 250.772 179.331 250.773C179.307 250.775 179.273 250.779 179.228 250.784C179.138 250.794 179.005 250.81 178.831 250.831C178.484 250.872 177.974 250.935 177.318 251.022C176.008 251.197 174.117 251.467 171.788 251.852C167.133 252.621 160.722 253.848 153.703 255.682C139.72 259.336 123.113 265.447 113.267 275.293L114.681 276.707C124.121 267.268 140.264 261.26 154.209 257.617C161.154 255.802 167.502 254.587 172.114 253.825C174.42 253.444 176.29 253.177 177.582 253.005C178.228 252.919 178.73 252.857 179.069 252.816C179.238 252.796 179.367 252.781 179.453 252.772C179.496 252.767 179.528 252.763 179.55 252.761C179.56 252.76 179.568 252.759 179.573 252.758C179.576 252.758 179.578 252.758 179.579 252.758C179.579 252.758 179.58 252.758 179.58 252.757C179.58 252.757 179.58 252.757 179.474 251.763ZM113.267 228.233C123.113 238.079 139.72 244.191 153.703 247.844C160.722 249.678 167.133 250.906 171.788 251.675C174.117 252.059 176.008 252.33 177.318 252.504C177.974 252.591 178.484 252.654 178.831 252.696C179.005 252.717 179.138 252.732 179.228 252.742C179.273 252.747 179.307 252.751 179.331 252.753C179.342 252.755 179.351 252.756 179.357 252.756C179.36 252.757 179.363 252.757 179.364 252.757C179.365 252.757 179.366 252.757 179.366 252.757C179.367 252.757 179.367 252.757 179.474 251.763C179.58 250.769 179.58 250.769 179.58 250.769C179.58 250.769 179.579 250.769 179.579 250.769C179.578 250.769 179.576 250.768 179.573 250.768C179.568 250.768 179.56 250.767 179.55 250.766C179.528 250.763 179.496 250.76 179.453 250.755C179.367 250.745 179.238 250.73 179.069 250.71C178.73 250.669 178.228 250.607 177.582 250.521C176.29 250.35 174.42 250.082 172.114 249.702C167.502 248.94 161.154 247.724 154.209 245.909C140.264 242.266 124.121 236.259 114.681 226.819L113.267 228.233Z" fill="url(#paint0_linear_1_515)" mask="url(#path-1-inside-1_1_515)"/>
</g>
<defs>
<linearGradient id="paint0_linear_1_515" x1="0" y1="0.5" x2="340.552" y2="358.975" gradientUnits="userSpaceOnUse">
<stop stop-color="white"/>
<stop offset="1" stop-color="white" stop-opacity="0"/>
</linearGradient>
</defs>
</svg>
