<svg width="74" height="28" viewBox="0 0 74 28" fill="none" xmlns="http://www.w3.org/2000/svg">
<path d="M15.472 2.00335C9.18554 0.282521 6.58091 7.54093 1.22205 11.2509V27.6121H72.9998V5.69779C69.2696 8.21756 66.4148 9.03322 61.9165 8.86446C55.9293 8.63984 53.4478 0.178287 47.6665 1.75098C42.0942 3.2668 44.8738 12.7045 39.222 13.8899C34.3472 14.9123 33.0815 9.47923 28.1387 8.86446C26.0934 8.61006 24.857 9.37829 22.8609 8.86446C19.0475 7.88279 19.2701 3.04299 15.472 2.00335Z" fill="url(#paint0_linear_249_417)" fill-opacity="0.2"/>
<path d="M1.22205 11.2509C6.58091 7.54089 8.65777 0.0300413 14.9443 1.75087C18.7423 2.79051 18.5198 7.63031 22.3332 8.61198C24.3292 9.12581 25.5656 8.35758 27.6109 8.61198C32.5537 9.22675 34.3472 14.9122 39.222 13.8898C44.8738 12.7044 42.0942 3.26669 47.6665 1.75087C53.4478 0.178178 55.4015 8.38736 61.3887 8.61198C65.8871 8.78074 68.7419 7.96509 72.472 5.44531" stroke="#F5C861" stroke-width="1.58333" stroke-linecap="round"/>
<defs>
<linearGradient id="paint0_linear_249_417" x1="37.1109" y1="1.55615" x2="37.1109" y2="27.6121" gradientUnits="userSpaceOnUse">
<stop stop-color="#F5C861"/>
<stop offset="1" stop-color="#F5C861" stop-opacity="0"/>
</linearGradient>
</defs>
</svg>
