<svg width="75" height="26" viewBox="0 0 75 26" fill="none" xmlns="http://www.w3.org/2000/svg">
<path d="M9.34724 1.83317C5.1183 1.79993 4.78611 6.32566 1.69446 9.8771V25.5831H74V10.7186C71.0972 10.7186 68.9861 12.4754 66.0834 11.8609C63.1657 11.2432 66.7598 4.39734 63.9722 4.03094C61.5044 3.70656 61.9369 8.74009 59.4861 9.222C56.5934 9.7908 56.8646 4.31637 53.9445 4.03094C51.4618 3.78829 50.5827 6.68857 48.1389 7.27881C42.5048 8.63957 39.3422 -0.923759 34.1528 2.0998C30.223 4.38944 32.6939 11.4708 28.3472 11.5998C25.3755 11.688 25.1657 8.14572 22.2778 7.27881C20.2754 6.67771 19.009 7.8459 17 7.27881C13.5437 6.30314 12.8932 1.86104 9.34724 1.83317Z" fill="url(#paint0_linear_249_399)" fill-opacity="0.2"/>
<path d="M1.69446 9.12762C4.78611 6.24208 5.38219 1.71172 9.61112 1.73873C13.1571 1.76137 13.5437 6.22377 17 7.0165C19.009 7.47727 20.2754 6.52811 22.2778 7.0165C25.1657 7.72087 25.6394 11.3104 28.6111 11.2387C32.9578 11.1339 30.4869 3.59906 34.4167 1.73873C39.6061 -0.717914 42.5048 8.12213 48.1389 7.0165C50.5827 6.53693 51.4618 4.18046 53.9445 4.37762C56.8646 4.60952 56.8573 9.58976 59.75 9.12762C62.2008 8.73607 61.5044 4.11406 63.9722 4.37762C66.7598 4.67532 63.6651 9.82067 66.0833 11.2387C68.6721 12.7567 70.8333 9.65554 74 11.2387" stroke="#5570E3" stroke-width="1.58333" stroke-linecap="round"/>
<defs>
<linearGradient id="paint0_linear_249_399" x1="37.8472" y1="1.50537" x2="37.8472" y2="25.5831" gradientUnits="userSpaceOnUse">
<stop stop-color="#5570E3"/>
<stop offset="1" stop-color="#5570E3" stop-opacity="0"/>
</linearGradient>
</defs>
</svg>
