<svg width="72" height="27" viewBox="0 0 72 27" fill="none" xmlns="http://www.w3.org/2000/svg">
<path d="M13.9997 2.98932C7.79376 2.40483 5.95805 8.69542 0.805298 12.3516V26.6666H70.9997V5.74294C67.8062 8.43718 65.0691 9.3391 60.972 9.04729C55.6097 8.66537 54.7322 1.13776 49.3609 1.33714C42.3454 1.59755 44.666 14.4022 37.7497 15.656C31.7498 16.7437 27.722 12.3515 23.4997 9.04729C20.0214 6.32522 18.33 3.39715 13.9997 2.98932Z" fill="url(#paint0_linear_249_408)" fill-opacity="0.2"/>
<path d="M0.805298 11.8925C5.95805 8.38867 7.79376 2.36018 13.9997 2.92031C18.33 3.31115 20.0214 6.11722 23.4997 8.72587C27.722 11.8924 31.7498 16.1016 37.7497 15.0592C44.666 13.8576 42.3454 1.58654 49.3609 1.33698C54.7321 1.14591 55.6097 8.35987 60.972 8.72587C65.0691 9.00552 67.8062 8.14118 70.9997 5.5592" stroke="#F7931A" stroke-width="1.58333" stroke-linecap="round"/>
<defs>
<linearGradient id="paint0_linear_249_408" x1="35.9025" y1="1.33325" x2="35.9025" y2="26.6666" gradientUnits="userSpaceOnUse">
<stop stop-color="#F7931A"/>
<stop offset="1" stop-color="#F7931A" stop-opacity="0"/>
</linearGradient>
</defs>
</svg>
