<svg xmlns="http://www.w3.org/2000/svg" width="130" height="160" viewBox="0 0 130 160" fill="none">
  <rect x="0.5" y="160" width="160" height="129" rx="23" transform="rotate(-90 0.5 160)" fill="#6046FF" />
  <path d="M65.1494 81.6972C72.0303 81.6972 77.6084 76.1192 77.6084 69.2383C77.6084 62.3574 72.0303 56.7793 65.1494 56.7793C58.2685 56.7793 52.6904 62.3574 52.6904 69.2383C52.6904 76.1192 58.2685 81.6972 65.1494 81.6972Z" fill="#907EFF" />
  <path d="M86.3692 69.3308C86.3692 71.4215 82.2639 72.8312 81.6518 74.716C81.0185 76.6694 83.4881 80.2226 82.3061 81.8487C81.1135 83.4907 76.9607 82.2341 75.3196 83.4273C73.6943 84.61 73.6152 88.9551 71.6628 89.5886C69.7789 90.2011 67.1722 86.7535 65.0826 86.7535C62.993 86.7535 60.3862 90.2011 58.5024 89.5886C56.55 88.9551 56.4708 84.61 54.8455 83.4273C53.2045 82.2341 49.0516 83.4907 47.859 81.8487C46.677 80.2226 49.1466 76.6694 48.5134 74.716C47.9013 72.8312 43.7959 71.4162 43.7959 69.3308C43.7959 67.2453 47.9013 65.8304 48.5134 63.9456C49.1466 61.9921 46.677 58.4389 47.859 56.8128C49.0516 55.1709 53.2045 56.4274 54.8455 55.2342C56.4708 54.0516 56.55 49.7065 58.5024 49.0729C60.3862 48.4605 62.993 51.9081 65.0826 51.9081C67.1722 51.9081 69.7789 48.4605 71.6628 49.0729C73.6152 49.7065 73.6943 54.0516 75.3196 55.2342C76.9607 56.4274 81.1135 55.1709 82.3061 56.8128C83.4881 58.4389 81.0185 61.9921 81.6518 63.9456C82.2586 65.8251 86.3692 67.24 86.3692 69.3308Z" stroke="white" stroke-width="2.5" stroke-miterlimit="10" />
  <path d="M64.75 90.4806L73.6731 110.876C74.2694 112.238 76.1163 112.391 76.5753 111.119L78.0476 106.224C78.3325 105.427 79.2507 105.116 80.0739 105.538L84.881 108.257C86.195 108.928 87.4403 107.74 86.8493 106.383L76.4804 82.6826" stroke="white" stroke-width="2.5" stroke-miterlimit="10" />
  <path d="M66.2384 87.0805L55.8272 110.876C55.231 112.238 53.3841 112.391 52.925 111.119L51.4528 106.224C51.1678 105.427 50.2497 105.116 49.4265 105.538L44.6193 108.257C43.3054 108.928 42.06 107.74 42.651 106.383L53.0253 82.6826" stroke="white" stroke-width="2.5" stroke-miterlimit="10" />
</svg>