<svg xmlns="http://www.w3.org/2000/svg" width="130" height="160" viewBox="0 0 130 160" fill="none">
  <rect x="0.5" y="160" width="160" height="129" rx="23" transform="rotate(-90 0.5 160)" fill="#6046FF" />
  <path d="M89.6213 69.3269C89.6213 54.7385 77.4173 43.0312 62.77 44.0634C50.469 44.9258 40.4822 54.9606 39.5708 67.3931C38.7693 78.3426 44.8518 87.9462 53.9014 92.2516C55.2588 92.8983 56.125 94.2768 56.125 95.7925V101.796V106.33C56.125 110.708 59.2988 114.549 63.6038 115.032C68.691 115.601 73.0024 111.59 73.0024 106.559V95.7925C73.0024 94.2768 73.8751 92.8983 75.2325 92.2516C83.7326 88.1945 89.6213 79.4597 89.6213 69.3269Z" stroke="white" stroke-width="2.5" stroke-miterlimit="10" />
  <path d="M72.9966 101.45H56.1191" stroke="white" stroke-width="2.5" stroke-miterlimit="10" />
  <path d="M64.5601 70.9531C59.6539 70.9531 55.6592 74.9906 55.6592 79.9492V85.1888C58.2642 86.7567 61.3087 87.6648 64.5601 87.6648C67.8114 87.6648 70.856 86.7632 73.461 85.1888V79.9492C73.461 74.9906 69.4662 70.9531 64.5601 70.9531Z" fill="#907EFF" />
  <path d="M51.2705 79.9496C51.2705 72.5411 57.2303 66.5175 64.5604 66.5175C71.8906 66.5175 77.8503 72.5411 77.8503 79.9496V81.4326C80.423 78.3621 81.9743 74.3965 81.9743 70.065C81.9743 60.3438 74.1788 52.4648 64.5604 52.4648C54.942 52.4648 47.1465 60.3438 47.1465 70.065C47.1465 74.403 48.6978 78.3686 51.2705 81.4326V79.9496Z" fill="#907EFF" />
</svg>