<svg xmlns="http://www.w3.org/2000/svg" width="130" height="160" viewBox="0 0 130 160" fill="none">
  <rect x="0.5" y="160" width="160" height="129" rx="23" transform="rotate(-90 0.5 160)" fill="#6046FF" />
  <path d="M82.1645 89.8633L73.4814 98.5198C72.3689 99.6283 70.8702 100.247 69.2995 100.247H46.4226C43.1523 100.247 40.5 97.5918 40.5 94.3179V59.9291C40.5 56.6552 43.1523 54 46.4226 54H77.9826C81.2529 54 83.9052 56.6552 83.9052 59.9291V85.6614C83.9103 87.2391 83.282 88.7497 82.1645 89.8633Z" stroke="white" stroke-width="2.5" stroke-miterlimit="10" />
  <path d="M87.4279 95.3956L78.7448 104.052C77.6323 105.161 76.1336 105.779 74.5629 105.779H51.6912C48.4209 105.779 45.7686 103.124 45.7686 99.8501V65.4613C45.7686 62.1874 48.4209 59.5322 51.6912 59.5322H83.2511C86.5214 59.5322 89.1737 62.1874 89.1737 65.4613V91.1936C89.1737 92.7713 88.5454 94.2819 87.4279 95.3956Z" fill="#907EFF" />
  <path d="M54.2256 73.5497C54.2256 72.9063 54.7471 72.3848 55.3905 72.3848H80.2424C80.8858 72.3848 81.4073 72.9063 81.4073 73.5497C81.4073 74.1931 80.8858 74.7146 80.2424 74.7146H55.3905C54.7471 74.7146 54.2256 74.1931 54.2256 73.5497Z" fill="white" />
  <path d="M54.2256 78.9862C54.2256 78.3428 54.7471 77.8213 55.3905 77.8213H80.2424C80.8858 77.8213 81.4073 78.3428 81.4073 78.9862C81.4073 79.6296 80.8858 80.1512 80.2424 80.1512H55.3905C54.7471 80.1512 54.2256 79.6296 54.2256 78.9862Z" fill="white" />
  <path d="M54.2256 84.4218C54.2256 83.7784 54.7471 83.2568 55.3905 83.2568H80.2424C80.8858 83.2568 81.4073 83.7784 81.4073 84.4218C81.4073 85.0651 80.8858 85.5867 80.2424 85.5867H55.3905C54.7471 85.5867 54.2256 85.0651 54.2256 84.4218Z" fill="white" />
  <path d="M54.2256 89.8583C54.2256 89.2149 54.7471 88.6934 55.3905 88.6934H67.8165C68.4598 88.6934 68.9814 89.2149 68.9814 89.8583C68.9814 90.5017 68.4598 91.0232 67.8165 91.0232H55.3905C54.7471 91.0232 54.2256 90.5017 54.2256 89.8583Z" fill="white" />
</svg>