<svg xmlns="http://www.w3.org/2000/svg" width="130" height="160" viewBox="0 0 130 160" fill="none">
  <rect x="0.5" y="160" width="160" height="129" rx="23" transform="rotate(-90 0.5 160)" fill="#6046FF" />
  <path d="M89.6622 108.968C92.7448 108.968 94.9924 106.079 94.2603 103.093C91.6181 92.334 81.8728 84.3447 70.2574 84.3447C58.6419 84.3447 48.8909 92.334 46.2544 103.098C45.5223 106.084 47.7699 108.968 50.8525 108.968H89.6622Z" stroke="white" stroke-width="2.5" stroke-miterlimit="10" />
  <path d="M70.2565 78.9653C77.6507 78.9653 83.6449 72.9928 83.6449 65.6252C83.6449 58.2577 77.6507 52.2852 70.2565 52.2852C62.8623 52.2852 56.8682 58.2577 56.8682 65.6252C56.8682 72.9928 62.8623 78.9653 70.2565 78.9653Z" stroke="white" stroke-width="2.5" stroke-miterlimit="10" />
  <path d="M41.913 101.218C44.1205 92.2255 49.8053 85.1651 59.7851 81.8828C48.5414 82.2589 38.2185 89.4105 35.6392 99.9127C34.9071 102.899 37.1547 105.782 40.2373 105.782H42.7422C41.873 104.506 41.5069 102.876 41.913 101.218Z" fill="#907EFF" />
  <path d="M52.8597 62.9701C52.8597 54.7188 59.5739 48.0288 67.8551 48.0288C70.7832 48.0288 73.517 48.8665 75.8218 50.3139C73.2768 46.513 68.9303 44 63.9947 44C56.1596 44 49.8057 50.331 49.8057 58.1436C49.8057 61.8988 51.2812 65.3122 53.6775 67.848C53.1513 66.3151 52.8597 64.6797 52.8597 62.9701Z" fill="#907EFF" />
</svg>